<?xml version="1.0" encoding="UTF-8"?><svg id="a" xmlns="http://www.w3.org/2000/svg" viewBox="0 0 800 600.7"><path d="M566.85,393.62c12.1,2.74,24.22,5.25,36.22,8.25,15.36,3.85,30.42,8.76,43.92,17.23,5.48,3.44,10.8,7.62,15.02,12.48,7.79,8.97,6.92,19.24-1.18,28.04-9.27,10.08-20.91,16.78-32.96,22.76-28.01,13.93-57.62,23.2-88.07,30.11-7.71,1.75-14.98,5.36-22.58,7.73-25.56,7.99-51.84,12.32-78.39,15.32-31.77,3.59-63.62,3.86-95.45,1.7-30.33-2.06-60.73-5.4-89.19-16.41-20.33-7.86-41.53-12.16-62.01-19.09-23.92-8.09-47.52-16.95-68.53-31.32-5.35-3.66-10.44-8.04-14.62-12.96-7.48-8.81-6.81-18.07,.98-26.76,7.21-8.04,16.35-13.24,26.11-17.43,22.6-9.69,46.43-14.87,70.52-19.04,1.53-.27,3.05-.59,4.86-.94-7.66-17.64-12.47-35.62-14.78-54.21-3.83-30.72-5.72-61.51-1.6-92.37,1.11-8.35,6.01-14.33,12.84-18.8,11.45-7.49,24.46-10.93,37.65-13.38,13.18-2.44,26.51-4.01,39.78-5.98,1.08-.16,2.15-.43,3.96-.8-8.08-5.69-12.76-12.86-14.77-21.94-4.09-18.5,2.89-38.39,19.1-48.18,10.11-6.11,21.71-9.77,32.64-14.52,10.8-4.7,22.1-8.51,32.26-14.33,12.31-7.05,15.45-17.05,12.02-30.82-3.32-13.34-10.6-24.51-18.66-35.64,3.3,2.72,7.04,5.07,9.82,8.25,6.91,7.9,14.67,15.46,19.77,24.47,10.48,18.52,6.39,38.33-10.41,51.42-8.57,6.68-18.67,11.49-28.32,16.68-8.84,4.75-18.38,8.26-26.97,13.4-17.55,10.51-24.25,26.02-20.72,45.55,.28,1.54,.78,3.03,1.26,4.84,7.37-.47,14.52-.92,21.68-1.38,6.99-.45,13.98-.9,20.86-1.34-1.9-5.29-4.19-10.17-5.38-15.31-2.63-11.32,.99-20.89,10.71-27.08,7.34-4.68,15.59-7.94,23.45-11.81,7.58-3.73,15.54-6.85,22.71-11.25,24.97-15.31,31.74-37.22,20.21-64.2-2.79-6.53-6.16-12.82-8.98-19.37,16.74,18.1,33.46,36.34,30.97,63.75-1.59,17.54-10.84,30.99-25.17,40.58-8.31,5.56-17.71,9.48-26.38,14.54-6.02,3.51-11.95,7.34-17.36,11.72-5.26,4.27-7.01,10.46-6.6,18.01,1.74,0,3.42-.04,5.1,0,25.44,.68,50.95,.52,76.32,2.27,29.13,2.01,58.25,5.14,86.09,15.01,3,1.06,5.9,2.4,8.81,3.71,13.28,5.98,20.35,16.48,22.26,30.71,.34,2.51,.8,5.01,1.13,7.06,10.05,.96,20.03,1.1,29.67,2.99,20.61,4.03,38.02,13.6,47.94,33.09,11.56,22.71,3.8,53.39-16.71,70.26-13.26,10.91-28.85,16.82-44.71,22.36-1.65,.58-3.33,1.05-4.98,1.63-.42,.15-.77,.51-1.11,.75ZM213.81,251.91c-.26,.44-.6,.81-.7,1.23-.23,.93-.41,1.88-.48,2.83-2.58,34.01-1.43,67.75,6.62,101.09,10.98,45.47,36.58,78.89,80.61,96.27,48.39,19.1,97.32,19.06,145.98,.62,36.86-13.96,63.59-38.73,77.7-76,12.84-33.91,15.77-69.28,14.32-105.18-.29-7.27-1.05-14.52-1.61-22.13-5.17,2.24-9.53,4.54-14.14,6.07-35.69,11.83-72.73,15.39-109.98,17.18-45.35,2.19-90.58,.3-135.58-5.77-21.48-2.9-42.92-6.37-62.73-16.21Zm354.69,203.61c-.49,.4-.96,.82-1.47,1.2-14.74,10.81-31.75,16.08-49.24,20.08-29.64,6.79-59.78,8.49-90.07,8.61-5.28,.02-10.64-.42-15.84,.3-23.62,3.29-47.17,3.55-70.77-.15-50.35-7.9-91.92-29.89-119.81-74.13-.75-1.18-3.09-2.27-4.43-2.03-19.14,3.5-38.35,6.74-57.31,11.1-11.95,2.75-23.45,7.38-33.52,14.8-11.36,8.37-11.68,17.98-.09,25.81,6.54,4.42,13.79,8.14,21.19,10.91,44.44,16.62,91.1,21.9,137.91,25.83,22,1.85,44.1,3.2,66.16,3.31,34.09,.16,68.22-.17,102.26-1.75,26.49-1.23,52.92-4.29,79.3-7.22,26.52-2.94,52.75-7.8,78.33-15.58,12.22-3.71,24.34-7.87,34.71-15.72,10.73-8.12,10.84-16.69,.28-25.03-12.22-9.64-26.91-13.67-41.53-17.61-23.04-6.21-46.66-9.06-70.34-11.47-2.9-.3-3.93,1.11-5.15,3.12-8.59,14.2-18.87,27.01-31.96,37.33-5.81,4.58-11.93,8.77-19.06,13.98,9.01,1.42,16.93,3.35,24.94,3.8,22.43,1.25,44.1-3.29,65.49-9.5Zm-195.1-228.9c-9.31-2.96-17.44-7.09-24.66-13.08-1.52-1.26-3.88-2.11-5.84-2.09-7.52,.09-15.03,.59-22.54,.98-22.05,1.13-43.94,3.7-65.42,8.89-9.25,2.23-18.68,4.57-26.25,10.94-4.5,3.79-4.48,8.43,.64,11.3,5.93,3.32,12.2,6.41,18.71,8.25,31.91,8.98,64.75,11.8,97.67,12.35,28.78,.48,57.64-.07,86.36-1.92,20.31-1.31,40.54-4.94,60.57-8.77,8.54-1.63,16.81-5.81,24.59-9.98,5.2-2.79,4.94-7.06,.36-10.87-2.41-2.01-5.26-3.64-8.16-4.89-17.19-7.4-35.53-10.18-53.9-12.24-18.58-2.09-37.26-3.46-55.93-4.43-13.03-.67-26.12-.13-39.18-.13-.32,.35-.64,.71-.96,1.06,4.51,4.74,9.03,9.47,13.95,14.64Zm172.67,146.6c3.86-1.17,7.06-2.01,10.18-3.1,15.38-5.34,30.93-10.4,44.01-20.58,15.2-11.83,17.09-34.36,3.45-47.8-12.57-12.39-28.94-14.07-46.01-14.62,.33,29.43-2.97,57.69-11.62,86.09Z"/><path d="M376.06,228.57c33.03,1.25,58.96,2.09,84.88,3.32,6.66,.32,13.34,1.56,19.86,3.01,2.47,.55,4.55,2.91,6.8,4.45-1.87,1.96-3.4,4.95-5.67,5.69-9.23,2.98-18.54,6.07-28.07,7.66-39.04,6.53-78.42,6.78-117.81,4.68-22.95-1.22-45.95-2.81-68.2-9.38-2.42-.72-4.92-1.55-7.02-2.89-1.41-.9-2.89-2.74-2.98-4.25-.06-1.04,2.04-2.88,3.45-3.22,6.35-1.53,12.74-3.4,19.21-3.8,34.18-2.11,68.39-3.82,95.55-5.28Z"/></svg>